<svg xmlns="http://www.w3.org/2000/svg" viewBox="0 0 200 200">
  <!-- Orange circle background -->
  <circle cx="100" cy="100" r="95" fill="#FFA500" />
  
  <!-- White inner circle -->
  <circle cx="100" cy="100" r="80" fill="white" />
  
  <!-- Tree -->
  <g transform="translate(100, 100) scale(0.5)">
    <!-- Tree trunk -->
    <rect x="-10" y="20" width="20" height="60" fill="#2E7D32" />
    
    <!-- Tree foliage -->
    <path d="M0,-80 C-50,-40 -50,0 0,0 C50,0 50,-40 0,-80 Z" fill="#4CAF50" />
    <path d="M0,-60 C-40,-20 -40,20 0,20 C40,20 40,-20 0,-60 Z" fill="#4CAF50" />
    <path d="M0,-40 C-30,0 -30,40 0,40 C30,40 30,0 0,-40 Z" fill="#4CAF50" />
  </g>
  
  <!-- Text "S.A. PATEL" around top -->
  <path id="top-curve" d="M30,70 A70,70 0 0,1 170,70" fill="none" />
  <text font-family="Arial" font-weight="bold" font-size="16">
    <textPath href="#top-curve" startOffset="50%" text-anchor="middle" fill="#000">
      S.A. PATEL
    </textPath>
  </text>
  
  <!-- Text "FENCING DEVELOPMENT SERVICES" around bottom -->
  <path id="bottom-curve" d="M170,130 A70,70 0 0,1 30,130" fill="none" />
  <text font-family="Arial" font-size="8">
    <textPath href="#bottom-curve" startOffset="50%" text-anchor="middle" fill="#000">
      FENCING DEVELOPMENT SERVICES
    </textPath>
  </text>
</svg>